<?xml version="1.0" standalone="no"?>
<!DOCTYPE svg PUBLIC "-//W3C//DTD SVG 20010904//EN"
 "http://www.w3.org/TR/2001/REC-SVG-20010904/DTD/svg10.dtd">
<svg version="1.0" xmlns="http://www.w3.org/2000/svg"
 width="218.000000pt" height="218.000000pt" viewBox="0 0 218.000000 218.000000"
 preserveAspectRatio="xMidYMid meet">
<metadata>
Created by potrace 1.11, written by Peter Selinger 2001-2013
</metadata>
<g transform="translate(0.000000,218.000000) scale(0.100000,-0.100000)"
fill="#000000" stroke="none">
<path d="M620 2157 c-3 -3 -90 -8 -195 -12 -104 -4 -201 -8 -215 -10 -14 -1
-52 -3 -86 -4 l-61 -1 -6 -102 c-18 -283 -22 -465 -22 -928 0 -278 3 -577 8
-665 14 -292 19 -370 26 -376 6 -6 75 -11 416 -27 205 -9 967 -9 1196 0 266
11 402 19 425 23 19 4 21 12 23 85 1 43 4 89 6 100 18 95 27 1126 13 1470 -13
288 -20 405 -27 412 -3 4 -76 10 -161 13 -85 4 -166 9 -180 12 -31 6 -1154 15
-1160 10z"/>
</g>
</svg>
